<svg width="26" height="26" viewBox="0 0 26 26" fill="none" xmlns="http://www.w3.org/2000/svg">
<g id="vuesax/bulk/bank">
<g id="bank">
<path id="Vector" d="M23.8333 20.5833V23.8333H2.16666V20.5833C2.16666 19.9875 2.65416 19.5 3.24999 19.5H22.75C23.3458 19.5 23.8333 19.9875 23.8333 20.5833Z" fill="#B57700" stroke="#B57700" stroke-width="1.5" stroke-miterlimit="10" stroke-linecap="round" stroke-linejoin="round"/>
<path id="Vector_2" opacity="0.6" d="M8.66668 11.9167H4.33334V19.5H8.66668V11.9167Z" fill="#B57700"/>
<path id="Vector_3" opacity="0.4" d="M13 11.9167H8.66666V19.5H13V11.9167Z" fill="#B57700"/>
<path id="Vector_4" opacity="0.6" d="M17.3333 11.9167H13V19.5H17.3333V11.9167Z" fill="#B57700"/>
<path id="Vector_5" opacity="0.4" d="M21.6667 11.9167H17.3333V19.5H21.6667V11.9167Z" fill="#B57700"/>
<path id="Vector_6" d="M24.9167 24.6458H1.08334C0.639177 24.6458 0.270844 24.2775 0.270844 23.8333C0.270844 23.3891 0.639177 23.0208 1.08334 23.0208H24.9167C25.3608 23.0208 25.7292 23.3891 25.7292 23.8333C25.7292 24.2775 25.3608 24.6458 24.9167 24.6458Z" fill="#B57700"/>
<path id="Vector_7" d="M23.1508 6.22919L13.4008 2.32922C13.1842 2.24255 12.8158 2.24255 12.5992 2.32922L2.84916 6.22919C2.47 6.38086 2.16666 6.82502 2.16666 7.23669V10.8334C2.16666 11.4292 2.65416 11.9167 3.24999 11.9167H22.75C23.3458 11.9167 23.8333 11.4292 23.8333 10.8334V7.23669C23.8333 6.82502 23.53 6.38086 23.1508 6.22919ZM13 9.20836C12.1008 9.20836 11.375 8.48253 11.375 7.58336C11.375 6.6842 12.1008 5.95836 13 5.95836C13.8992 5.95836 14.625 6.6842 14.625 7.58336C14.625 8.48253 13.8992 9.20836 13 9.20836Z" fill="#B57700"/>
</g>
</g>
</svg>
