<svg width="26" height="26" viewBox="0 0 26 26" fill="none" xmlns="http://www.w3.org/2000/svg">
<g id="vuesax/bulk/ghost">
<g id="ghost">
<path id="Vector" opacity="0.4" d="M23.8333 21.7425V13.195C23.8333 7.12828 18.9583 2.16663 13 2.16663C7.04166 2.16663 2.16666 7.12828 2.16666 13.195V21.7425C2.16666 23.1075 2.97914 23.4758 3.9758 22.5658L5.05914 21.58C5.45997 21.2116 6.11 21.2116 6.51083 21.58L8.6775 23.5625C9.07833 23.9308 9.7283 23.9308 10.1291 23.5625L12.2958 21.58C12.6966 21.2116 13.3467 21.2116 13.7475 21.58L15.9142 23.5625C16.315 23.9308 16.965 23.9308 17.3659 23.5625L19.5325 21.58C19.9334 21.2116 20.5833 21.2116 20.9841 21.58L22.0675 22.5658C23.0208 23.4758 23.8333 23.1075 23.8333 21.7425Z" fill="#0499DA"/>
<g id="Group">
<path id="Vector_2" d="M13 17.4092C11.2992 17.4092 9.59835 16.8784 8.17918 15.8167C7.82168 15.5459 7.74589 15.0367 8.01672 14.6792C8.28756 14.3217 8.79671 14.2458 9.15421 14.5167C11.4184 16.2175 14.5817 16.2175 16.8458 14.5167C17.2033 14.2458 17.7125 14.3217 17.9833 14.6792C18.2542 15.0367 18.1784 15.5459 17.8209 15.8167C16.4017 16.8784 14.7009 17.4092 13 17.4092Z" fill="#0499DA"/>
</g>
<path id="Vector_3" d="M13 12.3283C14.424 12.3283 15.5783 11.1739 15.5783 9.74997C15.5783 8.326 14.424 7.17163 13 7.17163C11.576 7.17163 10.4217 8.326 10.4217 9.74997C10.4217 11.1739 11.576 12.3283 13 12.3283Z" fill="#0499DA"/>
</g>
</g>
</svg>
